<?xml version="1.0" encoding="UTF-8"?>
<svg width="400px" height="600px" viewBox="0 0 400 600" version="1.1" xmlns="http://www.w3.org/2000/svg" xmlns:xlink="http://www.w3.org/1999/xlink">
    <title>Hot Coffee</title>
    <g id="Hot-Coffee" stroke="none" stroke-width="1" fill="none" fill-rule="evenodd">
        <path d="M78,208 L322,208 L300.47768,545.509111 C300.209085,549.721166 296.714506,553 292.493896,553 L107.506104,553 C103.285494,553 99.7909149,549.721166 99.5223201,545.509111 L78,208 L78,208 Z" id="Rectangle" stroke="#000000" stroke-width="6" fill="#FFFFFF" stroke-linejoin="round"></path>
        <rect id="Lide-Base" stroke="#000000" stroke-width="6" fill="#FFFFFF" stroke-linejoin="round" x="66" y="184" width="268" height="24"></rect>
        <g id="Cozy" transform="translate(66.000000, 263.000000)" fill="#4EAEFF" stroke="#000000" stroke-width="5">
            <path d="M8.42862404,0 L259.598204,0 C264.016482,-8.11624501e-16 267.598204,3.581722 267.598204,8 C267.598204,8.13063155 267.595004,8.2612435 267.588608,8.39171835 L259.597761,171.391718 C259.388877,175.652607 255.873363,179 251.607357,179 L16.939782,179 C12.6836214,179 9.1726017,175.667528 8.95066567,171.417157 L0.439507699,8.41715725 C0.209118114,4.00489013 3.59919967,0.241273249 8.01146679,0.0108836639 C8.15040091,0.00362912228 8.28950064,-8.62621866e-16 8.42862404,0 Z" id="Outer-Cozy-Line"></path>
        </g>
        <g id="Face" transform="translate(73.280585, 250.000000)">
            <g id="Fluff" fill="#007BE2" stroke="#000000" stroke-width="4">
                <path d="M27.2194152,0 C40.0091082,0 50.831122,5.46862363 54.4388304,13.0001663 L1.08246745e-13,13.0001663 C3.60770842,5.46862363 14.4297222,0 27.2194152,0 Z" id="Combined-Shape"></path>
                <path d="M78.2194152,0 C91.0091082,0 101.831122,5.46862363 105.43883,13.0001663 L51,13.0001663 C54.6077084,5.46862363 65.4297222,0 78.2194152,0 Z" id="Combined-Shape-Copy"></path>
                <path d="M127.219415,0 C140.009108,0 150.831122,5.46862363 154.43883,13.0001663 L100,13.0001663 C103.607708,5.46862363 114.429722,0 127.219415,0 Z" id="Combined-Shape-Copy-2"></path>
                <path d="M177.219415,0 C190.009108,0 200.831122,5.46862363 204.43883,13.0001663 L150,13.0001663 C153.607708,5.46862363 164.429722,0 177.219415,0 Z" id="Combined-Shape-Copy-3"></path>
                <path d="M227.219415,0 C240.009108,0 250.831122,5.46862363 254.43883,13.0001663 L200,13.0001663 C203.607708,5.46862363 214.429722,0 227.219415,0 Z" id="Combined-Shape-Copy-4"></path>
                <path d="M34.2194152,192 C47.0091082,192 57.831122,197.468624 61.4388304,205.000166 L7,205.000166 C10.6077084,197.468624 21.4297222,192 34.2194152,192 Z" id="Combined-Shape-Copy-5" transform="translate(34.219415, 198.500083) rotate(-180.000000) translate(-34.219415, -198.500083) "></path>
                <path d="M80.2194152,192 C93.0091082,192 103.831122,197.468624 107.43883,205.000166 L53,205.000166 C56.6077084,197.468624 67.4297222,192 80.2194152,192 Z" id="Combined-Shape-Copy-6" transform="translate(80.219415, 198.500083) rotate(-180.000000) translate(-80.219415, -198.500083) "></path>
                <path d="M125.219415,192 C138.009108,192 148.831122,197.468624 152.43883,205.000166 L98,205.000166 C101.607708,197.468624 112.429722,192 125.219415,192 Z" id="Combined-Shape-Copy-7" transform="translate(125.219415, 198.500083) rotate(-180.000000) translate(-125.219415, -198.500083) "></path>
                <path d="M169.219415,192 C182.009108,192 192.831122,197.468624 196.43883,205.000166 L142,205.000166 C145.607708,197.468624 156.429722,192 169.219415,192 Z" id="Combined-Shape-Copy-8" transform="translate(169.219415, 198.500083) rotate(-180.000000) translate(-169.219415, -198.500083) "></path>
                <path d="M218.219415,192 C231.009108,192 241.831122,197.468624 245.43883,205.000166 L191,205.000166 C194.607708,197.468624 205.429722,192 218.219415,192 Z" id="Combined-Shape-Copy-9" transform="translate(218.219415, 198.500083) rotate(-180.000000) translate(-218.219415, -198.500083) "></path>
            </g>
            <circle id="Eye" fill="#000000" cx="186.219415" cy="75.5" r="21.5"></circle>
            <circle id="Eye-Copy" fill="#000000" cx="68.2194152" cy="75.5" r="21.5"></circle>
            <g id="Mouth" transform="translate(97.719415, 97.000000)">
                <path d="M59,0 L59,30 L58.9202466,30.0005835 C57.801725,43.9780499 45.0572009,55 29.5,55 C13.9427991,55 1.19827496,43.9780499 0.079753397,30.0005835 L0,30 L0,0 L59,0 Z" id="Combined-Shape" fill="#000000"></path>
                <path d="M32.5483871,51 C38.8640288,51 49,47.1660195 49,43.5490687 C49,39.9321179 41.3888407,37 32,37 C22.6111593,37 15,39.9321179 15,43.5490687 C15,47.1660195 26.2327454,51 32.5483871,51 Z" id="Oval" fill="#ED8080" transform="translate(32.000000, 44.000000) rotate(-7.000000) translate(-32.000000, -44.000000) "></path>
            </g>
        </g>
        <polygon id="Rectangle" stroke="#000000" stroke-width="6" fill="#FFFFFF" stroke-linejoin="round" points="78 154 322 154 328 184 72 184"></polygon>
    </g>
</svg>