<?xml version="1.0" encoding="UTF-8"?>
<svg width="400px" height="600px" viewBox="0 0 400 600" version="1.1" xmlns="http://www.w3.org/2000/svg" xmlns:xlink="http://www.w3.org/1999/xlink">
    <title>Iced Coffee</title>
    <g id="Iced-Coffee" stroke="none" stroke-width="1" fill="none" fill-rule="evenodd">
        <path d="M78,208 L322,208 L300.565027,564.60001 C300.247632,569.880299 295.872863,574 290.583044,574 L109.416956,574 C104.127137,574 99.7523677,569.880299 99.4349733,564.60001 L78,208 L78,208 Z" id="Cup" stroke="#000000" stroke-width="6" fill="#FFFFFF" stroke-linejoin="round"></path>
        <path d="M200,91 C255.979393,91 303.941443,129.424995 323.985628,183.998283 L76.0143719,183.998283 C96.0585573,129.424995 144.020607,91 200,91 Z" id="Lid-Dome" stroke="#000000" stroke-width="6" fill="#FFFFFF"></path>
        <rect id="Straw" stroke="#000000" stroke-width="5" fill="#90CCEC" transform="translate(181.000000, 285.500000) rotate(6.000000) translate(-181.000000, -285.500000) " x="166" y="11" width="30" height="549" rx="8"></rect>
        <ellipse id="Straw-Opening" fill="#000000" cx="200" cy="94" rx="23" ry="6"></ellipse>
        <rect id="Lide-Base" stroke="#000000" stroke-width="6" fill="#FFFFFF" stroke-linejoin="round" x="66" y="184" width="268" height="24"></rect>
        <path d="M109.436163,574 L290.560846,574 C295.859735,574 300.238706,569.866622 300.544211,564.576547 L320,227.684133 L320,227.684133 C291.727643,224.200872 272.610103,227.920636 262.647379,238.843424 C247.703295,255.227607 234.46171,254.666083 217.329313,254.666083 C200.196916,254.666083 185.604033,258.851838 171.152438,270.900532 C155.427115,284.011168 138.795114,275.131155 116.119176,278.866771 C102.95381,281.035623 92.2771873,288.080033 84.0893071,300 L99.4529803,564.579706 C99.7600891,569.868465 104.138495,574 109.436163,574 Z" id="Coffee" stroke="#000000" stroke-width="5" fill="#8A5123" stroke-linejoin="round"></path>
        <g id="Cozy" transform="translate(66.000000, 306.000000)" stroke="#000000" stroke-width="5">
            <path d="M8.41742027,0 L258.608691,0 C263.026969,9.64732338e-16 266.608691,3.581722 266.608691,8 C266.608691,8.12730424 266.605652,8.25459035 266.599578,8.38174956 L258.621467,175.38175 C258.417715,179.646751 254.900446,183 250.63058,183 L16.9150133,183 C12.6547458,183 9.14184831,179.661307 8.92534985,175.406544 L0.427756842,8.40654436 C0.203228592,3.99397509 3.59830664,0.234864822 8.01087591,0.0103365726 C8.14628121,0.00344663751 8.28183979,7.13033309e-15 8.41742027,0 Z" id="Outer-Cozy-Line" fill="#EA7BB8"></path>
            <path d="M20.272063,11.2962963 L245.678196,11.2962963 C250.096474,11.2962963 253.678196,14.8780183 253.678196,19.2962963 C253.678196,19.4271347 253.674987,19.5579534 253.66857,19.6886344 L246.522506,165.225671 C246.313303,169.486305 242.797898,172.833333 238.532132,172.833333 L27.8834324,172.833333 C23.6275271,172.833333 20.1166243,169.501247 19.8943506,165.25115 L12.2829812,19.7141133 C12.0522272,15.3018653 15.4419979,11.5379684 19.854246,11.3072144 C19.9933995,11.2999369 20.1327194,11.2962963 20.272063,11.2962963 Z" id="Inner-Cozy-Line"></path>
        </g>
        <g id="Threads" transform="translate(68.765781, 307.395357)" stroke="#000000" stroke-linecap="square" stroke-width="5">
            <line x1="42.5996229" y1="0" x2="27" y2="8.92929327" id="Line-Copy-4"></line>
            <line x1="114.599623" y1="0" x2="99" y2="8.92929327" id="Line-Copy-6"></line>
            <line x1="150.599623" y1="0" x2="135" y2="8.92929327" id="Line-Copy-7"></line>
            <line x1="222.599623" y1="0" x2="207" y2="8.92929327" id="Line-Copy-27"></line>
            <line x1="258.599623" y1="0" x2="243" y2="8.92929327" id="Line-Copy-29"></line>
            <line x1="260.734219" y1="32.1046431" x2="251.734219" y2="22.1046431" id="Line-Copy-30"></line>
            <line x1="9.73421932" y1="12.1046431" x2="5.73421932" y2="1.10464307" id="Line-Copy-36"></line>
            <line x1="8.73421932" y1="36.1046431" x2="0.734219322" y2="28.1046431" id="Line-Copy-37"></line>
            <line x1="9.73421932" y1="64.1046431" x2="1.73421932" y2="56.1046431" id="Line-Copy-38"></line>
            <line x1="11.7342193" y1="93.1046431" x2="2.73421932" y2="84.1046431" id="Line-Copy-39"></line>
            <line x1="13.7342193" y1="122.104643" x2="4.73421932" y2="113.104643" id="Line-Copy-40"></line>
            <line x1="14.7342193" y1="151.104643" x2="5.73421932" y2="142.104643" id="Line-Copy-41"></line>
            <line x1="18.7342193" y1="170.104643" x2="6.73421932" y2="173.104643" id="Line-Copy-42"></line>
            <line x1="259.734219" y1="61.1046431" x2="251.734219" y2="52.1046431" id="Line-Copy-31"></line>
            <line x1="258.734219" y1="90.1046431" x2="249.734219" y2="81.1046431" id="Line-Copy-32"></line>
            <line x1="256.734219" y1="119.104643" x2="247.734219" y2="110.104643" id="Line-Copy-33"></line>
            <line x1="255.734219" y1="148.104643" x2="246.734219" y2="139.104643" id="Line-Copy-34"></line>
            <line x1="253.734219" y1="175.104643" x2="244.734219" y2="166.104643" id="Line-Copy-35"></line>
            <line x1="186.599623" y1="0" x2="171" y2="8.92929327" id="Line-Copy-28"></line>
            <line x1="78.5996229" y1="0" x2="63" y2="8.92929327" id="Line-Copy-5"></line>
            <line x1="164.734219" y1="173.104643" x2="152.841098" y2="180.244484" id="Line-Copy-20"></line>
            <line x1="195.734219" y1="173.104643" x2="184.734219" y2="180.244484" id="Line-Copy-19"></line>
            <line x1="226.734219" y1="173.104643" x2="215.734219" y2="180.244484" id="Line-Copy-18"></line>
            <line x1="133.734219" y1="173.104643" x2="123.411128" y2="180.244484" id="Line-Copy-17"></line>
            <line x1="102.734219" y1="173.104643" x2="92.1763837" y2="180.244484" id="Line-Copy-16"></line>
            <line x1="71.7342193" y1="173.104643" x2="61.2700767" y2="180.244484" id="Line-Copy-15"></line>
            <line x1="40.7342193" y1="173.104643" x2="31.5874907" y2="179.604643" id="Line-Copy-14"></line>
        </g>
        <g id="Face" transform="translate(129.393831, 348.769231)">
            <path d="M4.61380169,2.35367281e-14 L37,27.98718 L-7.10542736e-15,48 L0.99,37.694 L22.0972539,26.529503 L3.539,11.176 L4.61380169,2.35367281e-14 Z" id="Winky-Eye" fill="#000000"></path>
            <circle id="Eye" fill="#000000" cx="120.106169" cy="26.7307686" r="21.5"></circle>
            <g id="Mouth" transform="translate(39.606169, 48.230769)">
                <path d="M54,0 L54,30 L53.9270054,30.0005835 C52.9032738,43.9780499 41.2387941,55 27,55 C12.7612059,55 1.09672624,43.9780499 0.0729946345,30.0005835 L0,30 L0,0 L54,0 Z" id="Combined-Shape" fill="#000000"></path>
                <path d="M25.354572,50.7128547 C31.1129512,50.7128547 40.354572,46.9076002 40.354572,43.3177493 C40.354572,39.7278984 33.4149856,36.8177493 24.854572,36.8177493 C16.2941583,36.8177493 9.35457197,39.7278984 9.35457197,43.3177493 C9.35457197,46.9076002 19.5961928,50.7128547 25.354572,50.7128547 Z" id="Oval" fill="#F38484" transform="translate(24.854572, 43.765302) rotate(9.000000) translate(-24.854572, -43.765302) "></path>
            </g>
        </g>
    </g>
</svg>