<?xml version="1.0" encoding="UTF-8"?>
<svg width="324px" height="324px" viewBox="0 0 324 324" version="1.1" xmlns="http://www.w3.org/2000/svg" xmlns:xlink="http://www.w3.org/1999/xlink">
    <title>Logo</title>
    <g id="Cup-O-Cheers-Logo" stroke="none" stroke-width="1" fill="none" fill-rule="evenodd">
        <g id="Cozie-Sticker" transform="translate(-179.000000, -404.000000)">
            <g id="Logo" transform="translate(182.600000, 407.600000)">
                <rect id="Rectangle" stroke="#16155F" stroke-width="5.52" fill="#E1E7F3" stroke-linejoin="round" x="0" y="0" width="316.8" height="316.8" rx="3.52"></rect>
                <g id="Group" transform="translate(29.423355, 16.491760)">
                    <g id="Iced-Coffee" transform="translate(72.000000, 108.000000) rotate(12.000000) translate(-72.000000, -108.000000) ">
                        <path d="M28.08,74.88 L115.92,74.88 L108.124306,204.572002 C108.054479,205.733666 107.09203,206.64 105.92827,206.64 L38.0717304,206.64 C36.9079701,206.64 35.9455209,205.733666 35.8756941,204.572002 L28.08,74.88 L28.08,74.88 Z" id="Cup" stroke="#000000" stroke-width="1.32" fill="#FFFFFF" stroke-linejoin="round"></path>
                        <path d="M72,32.76 C92.1526649,32.76 109.419062,46.5931127 116.634916,66.2396258 L27.3650843,66.2396258 C34.5809378,46.5931127 51.8473351,32.76 72,32.76 Z" id="Lid-Dome" stroke="#000000" stroke-width="1.32" fill="#FFFFFF"></path>
                        <path d="M61.52,3.96 L68.8,3.96 C69.7720212,3.96 70.56,4.74797884 70.56,5.72 L70.56,199.84 C70.56,200.812021 69.7720212,201.6 68.8,201.6 L61.52,201.6 C60.5479788,201.6 59.76,200.812021 59.76,199.84 L59.76,5.72 C59.76,4.74797884 60.5479788,3.96 61.52,3.96 Z" id="Straw" stroke="#000000" stroke-width="1.1" fill="#90CCEC" transform="translate(65.160000, 102.780000) rotate(6.000000) translate(-65.160000, -102.780000) "></path>
                        <ellipse id="Straw-Opening" fill="#000000" cx="72" cy="33.84" rx="8.28" ry="2.16"></ellipse>
                        <rect id="Lide-Base" stroke="#000000" stroke-width="1.32" fill="#FFFFFF" stroke-linejoin="round" x="23.76" y="66.24" width="96.48" height="8.64"></rect>
                        <path d="M38.0759559,206.64 L105.923386,206.64 C107.089142,206.64 108.052515,205.730657 108.119727,204.56684 L115.2,81.9662879 L115.2,81.9662879 C105.021951,80.7123139 98.139637,82.0514289 94.5530566,85.9836327 C89.1731861,91.8819385 84.4062155,91.6797898 78.2385525,91.6797898 C72.0708896,91.6797898 66.8174519,93.1866618 61.6148777,97.5241915 C55.9537613,102.24402 49.9662409,99.0472157 41.8029034,100.392038 C37.0633717,101.172824 33.2197874,103.708812 30.2721506,108 L35.8796557,204.567535 C35.9472196,205.731062 36.9104689,206.64 38.0759559,206.64 Z" id="Coffee" stroke="#000000" stroke-width="1.1" fill="#AF8360" stroke-linejoin="round"></path>
                        <g id="Cozy" transform="translate(23.760000, 110.160000)" stroke="#000000" stroke-width="1.1">
                            <path d="M1.85183246,0 L94.2739121,0 C95.2459332,6.92526275e-15 96.0339121,0.78797884 96.0339121,1.76 C96.0339121,1.78800693 96.0332435,1.81600988 96.0319071,1.8439849 L93.0527755,64.2039849 C93.0079499,65.1422852 92.2341508,65.88 91.2947804,65.88 L5.02494563,65.88 C4.08768678,65.88 3.31484934,65.1454876 3.26721968,64.2094398 L0.0941065051,1.84943976 C0.0447102902,0.87867452 0.791627461,0.0516702609 1.7623927,0.00227404596 C1.79218187,0.000758260253 1.82200475,6.71613076e-16 1.85183246,0 Z" id="Outer-Cozy-Line" fill="#EC6AC1"></path>
                            <path d="M6.11783774,4.06666667 L89.6204935,4.06666667 C90.5925147,4.06666667 91.3804935,4.85464551 91.3804935,5.82666667 C91.3804935,5.85545112 91.3797874,5.88423124 91.3783757,5.91298105 L88.6958055,60.5463144 C88.6497809,61.4836537 87.8763919,62.22 86.9379233,62.22 L8.97507936,62.22 C8.03878019,62.22 7.26638157,61.4869411 7.21748136,60.5519197 L4.36023973,5.91858641 C4.30947386,4.94789184 5.05522341,4.11983453 6.02591799,4.06906866 C6.05653176,4.0674676 6.08718213,4.06666667 6.11783774,4.06666667 Z" id="Inner-Cozy-Line"></path>
                        </g>
                        <g id="Threads" transform="translate(24.755681, 110.662328)" stroke="#000000" stroke-linecap="square" stroke-width="1.1">
                            <line x1="15.3358642" y1="0" x2="9.72" y2="3.21454558" id="Line-Copy-4"></line>
                            <line x1="41.2558642" y1="0" x2="35.64" y2="3.21454558" id="Line-Copy-6"></line>
                            <line x1="54.2158642" y1="0" x2="48.6" y2="3.21454558" id="Line-Copy-7"></line>
                            <line x1="80.1358642" y1="0" x2="74.52" y2="3.21454558" id="Line-Copy-27"></line>
                            <line x1="93.0958642" y1="0" x2="87.48" y2="3.21454558" id="Line-Copy-29"></line>
                            <line x1="93.864319" y1="11.5576715" x2="90.624319" y2="7.95767151" id="Line-Copy-30"></line>
                            <line x1="3.50431896" y1="4.35767151" x2="2.06431896" y2="0.397671505" id="Line-Copy-36"></line>
                            <line x1="3.14431896" y1="12.9976715" x2="0.264318956" y2="10.1176715" id="Line-Copy-37"></line>
                            <line x1="3.50431896" y1="23.0776715" x2="0.624318956" y2="20.1976715" id="Line-Copy-38"></line>
                            <line x1="4.22431896" y1="33.5176715" x2="0.984318956" y2="30.2776715" id="Line-Copy-39"></line>
                            <line x1="4.94431896" y1="43.9576715" x2="1.70431896" y2="40.7176715" id="Line-Copy-40"></line>
                            <line x1="5.30431896" y1="54.3976715" x2="2.06431896" y2="51.1576715" id="Line-Copy-41"></line>
                            <line x1="6.74431896" y1="61.2376715" x2="2.42431896" y2="62.3176715" id="Line-Copy-42"></line>
                            <line x1="93.504319" y1="21.9976715" x2="90.624319" y2="18.7576715" id="Line-Copy-31"></line>
                            <line x1="93.144319" y1="32.4376715" x2="89.904319" y2="29.1976715" id="Line-Copy-32"></line>
                            <line x1="92.424319" y1="42.8776715" x2="89.184319" y2="39.6376715" id="Line-Copy-33"></line>
                            <line x1="92.064319" y1="53.3176715" x2="88.824319" y2="50.0776715" id="Line-Copy-34"></line>
                            <line x1="91.344319" y1="63.0376715" x2="88.104319" y2="59.7976715" id="Line-Copy-35"></line>
                            <line x1="67.1758642" y1="0" x2="61.56" y2="3.21454558" id="Line-Copy-28"></line>
                            <line x1="28.2958642" y1="0" x2="22.68" y2="3.21454558" id="Line-Copy-5"></line>
                            <line x1="59.304319" y1="62.3176715" x2="55.0227951" y2="64.8880141" id="Line-Copy-20"></line>
                            <line x1="70.464319" y1="62.3176715" x2="66.504319" y2="64.8880141" id="Line-Copy-19"></line>
                            <line x1="81.624319" y1="62.3176715" x2="77.664319" y2="64.8880141" id="Line-Copy-18"></line>
                            <line x1="48.144319" y1="62.3176715" x2="44.428006" y2="64.8880141" id="Line-Copy-17"></line>
                            <line x1="36.984319" y1="62.3176715" x2="33.1834981" y2="64.8880141" id="Line-Copy-16"></line>
                            <line x1="25.824319" y1="62.3176715" x2="22.0572276" y2="64.8880141" id="Line-Copy-15"></line>
                            <line x1="14.664319" y1="62.3176715" x2="11.3714967" y2="64.6576715" id="Line-Copy-14"></line>
                        </g>
                        <g id="Face" transform="translate(46.581779, 125.556923)">
                            <path d="M1.66096861,-4.81836793e-14 L13.32,10.0753848 L4.99156272e-13,17.28 L0.356,13.569 L7.95501139,9.55062107 L1.274,4.022 L1.66096861,-4.81836793e-14 Z" id="Winky-Eye" fill="#000000"></path>
                            <circle id="Eye" fill="#000000" cx="43.2382208" cy="9.62307669" r="7.74"></circle>
                            <g id="Mouth" transform="translate(14.258221, 17.363077)">
                                <path d="M19.44,0 L19.44,10.8 L19.4137595,10.7996971 C19.0454639,15.8318283 14.84614,19.8 9.72,19.8 C4.59385996,19.8 0.394536069,15.8318283 0.0262405125,10.7996971 L0,10.8 L0,0 L19.44,0 Z" id="Combined-Shape" fill="#000000"></path>
                                <path d="M9.12764591,18.2566277 C11.2006624,18.2566277 14.5276459,16.8867361 14.5276459,15.5943898 C14.5276459,14.3020434 12.0293948,13.2543898 8.94764591,13.2543898 C5.865897,13.2543898 3.36764591,14.3020434 3.36764591,15.5943898 C3.36764591,16.8867361 7.0546294,18.2566277 9.12764591,18.2566277 Z" id="Oval" fill="#F38484" transform="translate(8.947646, 15.755509) rotate(9.000000) translate(-8.947646, -15.755509) "></path>
                            </g>
                        </g>
                    </g>
                </g>
                <g id="Group" transform="translate(143.640000, 29.700000)">
                    <g id="Hot-Coffee" transform="translate(72.000000, 108.000000) rotate(-12.000000) translate(-72.000000, -108.000000) ">
                        <path d="M28.08,74.88 L115.92,74.88 L108.10509,197.432004 C108.045999,198.358656 107.277191,199.08 106.348657,199.08 L37.6513429,199.08 C36.7228086,199.08 35.9540013,198.358656 35.8949104,197.432004 L28.08,74.88 L28.08,74.88 Z" id="Rectangle" stroke="#000000" stroke-width="1.32" fill="#FFFFFF" stroke-linejoin="round"></path>
                        <rect id="Lide-Base" stroke="#000000" stroke-width="1.32" fill="#FFFFFF" stroke-linejoin="round" x="23.76" y="66.24" width="96.48" height="8.64"></rect>
                        <g id="Cozy" transform="translate(23.760000, 94.680000)" fill="#4EAEFF" stroke="#000000" stroke-width="1.1">
                            <path d="M1.85429729,0 L94.6316048,0 C95.603626,-1.7855739e-16 96.3916048,0.78797884 96.3916048,1.76 C96.3916048,1.78873894 96.3909009,1.81747357 96.3894937,1.84617804 L93.4029761,62.766178 C93.3570216,63.7035736 92.5836086,64.44 91.6450873,64.44 L5.03527731,64.44 C4.09892197,64.44 3.32649764,63.7068561 3.27767172,62.7717746 L0.0966916938,1.85177459 C0.046005985,0.881075828 0.791823928,0.0530801149 1.76252269,0.00239440606 C1.7930882,0.000798406902 1.82369014,6.71756257e-16 1.85429729,0 Z" id="Outer-Cozy-Line"></path>
                        </g>
                        <g id="Face" transform="translate(26.381661, 90.000000)">
                            <g id="Fluff" fill="#007BE2" stroke="#000000" stroke-width="0.88">
                                <path d="M9.79833876,0 C14.4028178,0 18.298874,1.96886663 19.5974886,4.68039476 L-0.000811122493,4.68039476 C1.2978035,1.96886663 5.1938597,0 9.79833876,0 Z" id="Combined-Shape"></path>
                                <path d="M28.1583388,0 C32.7628178,0 36.658874,1.96886663 37.9574886,4.68039476 L18.3591889,4.68039476 C19.6578035,1.96886663 23.5538597,0 28.1583388,0 Z" id="Combined-Shape-Copy"></path>
                                <path d="M45.7983388,0 C50.4028178,0 54.298874,1.96886663 55.5974886,4.68039476 L35.9991889,4.68039476 C37.2978035,1.96886663 41.1938597,0 45.7983388,0 Z" id="Combined-Shape-Copy-2"></path>
                                <path d="M63.7983388,0 C68.4028178,0 72.298874,1.96886663 73.5974886,4.68039476 L53.9991889,4.68039476 C55.2978035,1.96886663 59.1938597,0 63.7983388,0 Z" id="Combined-Shape-Copy-3"></path>
                                <path d="M81.7983388,0 C86.4028178,0 90.298874,1.96886663 91.5974886,4.68039476 L71.9991889,4.68039476 C73.2978035,1.96886663 77.1938597,0 81.7983388,0 Z" id="Combined-Shape-Copy-4"></path>
                                <path d="M12.3183388,69.1213579 C16.9228178,69.1213579 20.818874,71.0902246 22.1174886,73.8017527 L2.51918888,73.8017527 C3.8178035,71.0902246 7.7138597,69.1213579 12.3183388,69.1213579 Z" id="Combined-Shape-Copy-5" transform="translate(12.318339, 71.460709) rotate(-180.000000) translate(-12.318339, -71.460709) "></path>
                                <path d="M28.8783388,69.1213579 C33.4828178,69.1213579 37.378874,71.0902246 38.6774886,73.8017527 L19.0791889,73.8017527 C20.3778035,71.0902246 24.2738597,69.1213579 28.8783388,69.1213579 Z" id="Combined-Shape-Copy-6" transform="translate(28.878339, 71.460709) rotate(-180.000000) translate(-28.878339, -71.460709) "></path>
                                <path d="M45.0783388,69.1213579 C49.6828178,69.1213579 53.578874,71.0902246 54.8774886,73.8017527 L35.2791889,73.8017527 C36.5778035,71.0902246 40.4738597,69.1213579 45.0783388,69.1213579 Z" id="Combined-Shape-Copy-7" transform="translate(45.078339, 71.460709) rotate(-180.000000) translate(-45.078339, -71.460709) "></path>
                                <path d="M60.9183388,69.1213579 C65.5228178,69.1213579 69.418874,71.0902246 70.7174886,73.8017527 L51.1191889,73.8017527 C52.4178035,71.0902246 56.3138597,69.1213579 60.9183388,69.1213579 Z" id="Combined-Shape-Copy-8" transform="translate(60.918339, 71.460709) rotate(-180.000000) translate(-60.918339, -71.460709) "></path>
                                <path d="M78.5583388,69.1213579 C83.1628178,69.1213579 87.058874,71.0902246 88.3574886,73.8017527 L68.7591889,73.8017527 C70.0578035,71.0902246 73.9538597,69.1213579 78.5583388,69.1213579 Z" id="Combined-Shape-Copy-9" transform="translate(78.558339, 71.460709) rotate(-180.000000) translate(-78.558339, -71.460709) "></path>
                            </g>
                            <circle id="Eye" fill="#000000" cx="67.0383388" cy="27.18" r="7.74"></circle>
                            <circle id="Eye-Copy" fill="#000000" cx="24.5583388" cy="27.18" r="7.74"></circle>
                            <g id="Mouth" transform="translate(35.178339, 34.920000)">
                                <path d="M21.24,0 L21.24,10.8 L21.2112716,10.8004251 C20.8084903,15.832211 16.2205125,19.8 10.62,19.8 C5.01948746,19.8 0.431509719,15.832211 0.028728436,10.8004251 L0,10.8 L0,0 L21.24,0 Z" id="Combined-Shape" fill="#000000"></path>
                                <path d="M11.7174194,18.36 C13.9910504,18.36 17.64,16.979767 17.64,15.6776647 C17.64,14.3755625 14.8999827,13.32 11.52,13.32 C8.14001733,13.32 5.4,14.3755625 5.4,15.6776647 C5.4,16.979767 9.44378834,18.36 11.7174194,18.36 Z" id="Oval" fill="#ED8080" transform="translate(11.520000, 15.840000) rotate(-7.000000) translate(-11.520000, -15.840000) "></path>
                            </g>
                        </g>
                        <polygon id="Rectangle" stroke="#000000" stroke-width="1.32" fill="#FFFFFF" stroke-linejoin="round" points="28.08 55.44 115.92 55.44 118.08 66.24 25.92 66.24"></polygon>
                    </g>
                </g>
                <g id="Cup-O’Cheers" transform="translate(21.499200, 256.229280)" fill="#12125F" fill-rule="nonzero">
                    <path d="M22.89672,29.05632 C21.96216,29.70768 20.73024,30.18204 19.20096,30.4794 C17.67168,30.77676 16.09992,30.92544 14.48568,30.92544 C12.58824,30.92544 10.76868,30.64224 9.027,30.07584 C7.28532,29.50944 5.74188,28.6032 4.39668,27.35712 C3.05148,26.11104 1.9824,24.51096 1.18944,22.55688 C0.39648,20.6028 0,18.23808 0,15.46272 C0,12.57408 0.45312,10.14564 1.35936,8.1774 C2.2656,6.20916 3.42672,4.62324 4.84272,3.41964 C6.25872,2.21604 7.83048,1.3452 9.558,0.80712 C11.28552,0.26904 12.98472,0 14.6556,0 C16.4964,0 18.04692,0.11328 19.30716,0.33984 C20.5674,0.5664 21.60816,0.83544 22.42944,1.14696 L21.19752,6.41448 C20.48952,6.10296 19.66116,5.8764 18.71244,5.7348 C17.76372,5.5932 16.5672,5.5224 15.12288,5.5224 C13.84848,5.5224 12.69444,5.72772 11.66076,6.13836 C10.62708,6.549 9.74208,7.16496 9.00576,7.98624 C8.26944,8.80752 7.69596,9.8412 7.28532,11.08728 C6.87468,12.33336 6.66936,13.79184 6.66936,15.46272 C6.66936,16.93536 6.85344,18.28056 7.2216,19.49832 C7.58976,20.71608 8.142,21.76392 8.87832,22.64184 C9.61464,23.51976 10.5492,24.19944 11.682,24.68088 C12.8148,25.16232 14.13168,25.40304 15.63264,25.40304 C17.02032,25.40304 18.18852,25.2756 19.13724,25.02072 C20.08596,24.76584 20.92848,24.44016 21.6648,24.04368 L22.89672,29.05632 Z" id="Path"></path>
                    <path d="M33.3083138,8.02872 L33.3083138,20.3904 C33.3083138,22.2312 33.5631938,23.5764 34.0729538,24.426 C34.5827138,25.2756 35.5597538,25.7004 37.0040738,25.7004 C38.2501538,25.7004 39.2979938,25.37472 40.1475938,24.72336 C40.9971938,24.072 41.6202338,23.25072 42.0167138,22.25952 L42.0167138,8.02872 L47.9639138,8.02872 L47.9639138,23.53392 C47.9639138,24.72336 48.0276338,25.9128 48.1550738,27.10224 C48.2825138,28.29168 48.4595138,29.36784 48.6860738,30.33072 L44.3106338,30.33072 L43.1636738,26.84736 L42.6963938,26.84736 C41.9600738,28.0368 40.9122338,29.02092 39.5528738,29.79972 C38.1935138,30.57852 36.6359138,30.96792 34.8800738,30.96792 C33.6623138,30.96792 32.5861538,30.81216 31.6515938,30.50064 C30.7170338,30.18912 29.9311538,29.67228 29.2939538,28.95012 C28.6567538,28.22796 28.1753138,27.27216 27.8496338,26.08272 C27.5239538,24.89328 27.3611138,23.42064 27.3611138,21.6648 L27.3611138,8.02872 L33.3083138,8.02872 Z" id="Path"></path>
                    <path d="M55.3594277,8.02872 L59.6074277,8.02872 L60.3295877,10.78992 L60.8393477,10.78992 C61.7172677,9.65712 62.7367877,8.80752 63.8979077,8.24112 C65.0590277,7.67472 66.4183877,7.39152 67.9759877,7.39152 C70.9779077,7.39152 73.2293477,8.29068 74.7303077,10.089 C76.2312677,11.88732 76.9817477,14.74056 76.9817477,18.64872 C76.9817477,20.51784 76.7410277,22.20996 76.2595877,23.72508 C75.7781477,25.2402 75.0701477,26.54292 74.1355877,27.63324 C73.2010277,28.72356 72.0469877,29.559 70.6734677,30.13956 C69.2999477,30.72012 67.7211077,31.0104 65.9369477,31.0104 C64.9740677,31.0104 64.1386277,30.91836 63.4306277,30.73428 C62.7226277,30.5502 62.0146277,30.3024 61.3066277,29.99088 L61.3066277,38.78424 L55.3594277,38.78424 L55.3594277,8.02872 Z M66.1493477,12.36168 C64.7899877,12.36168 63.7421477,12.66612 63.0058277,13.275 C62.2695077,13.88388 61.7031077,14.82552 61.3066277,16.09992 L61.3066277,24.76584 C61.7880677,25.16232 62.3261477,25.47384 62.9208677,25.7004 C63.5155877,25.92696 64.2660677,26.04024 65.1723077,26.04024 C67.0980677,26.04024 68.5282277,25.43844 69.4627877,24.23484 C70.3973477,23.03124 70.8646277,21.11256 70.8646277,18.4788 C70.8646277,16.58136 70.5035477,15.08748 69.7813877,13.99716 C69.0592277,12.90684 67.8485477,12.36168 66.1493477,12.36168 Z" id="Shape"></path>
                    <path d="M93.0046954,15.46272 C93.0046954,13.0272 93.3162154,10.84656 93.9392554,8.9208 C94.5622954,6.99504 95.4614554,5.37372 96.6367354,4.05684 C97.8120154,2.73996 99.2492554,1.7346 100.948455,1.04076 C102.647655,0.34692 104.573415,0 106.725735,0 C109.019655,0 111.023295,0.37524 112.736655,1.12572 C114.450015,1.8762 115.880175,2.93112 117.027135,4.29048 C118.174095,5.64984 119.037855,7.27824 119.618415,9.17568 C120.198975,11.07312 120.489255,13.1688 120.489255,15.46272 C120.489255,17.89824 120.170655,20.07888 119.533455,22.00464 C118.896255,23.9304 117.982935,25.55172 116.793495,26.8686 C115.604055,28.18548 114.159735,29.19084 112.460535,29.88468 C110.761335,30.57852 108.849735,30.92544 106.725735,30.92544 C104.431815,30.92544 102.428175,30.5502 100.714815,29.79972 C99.0014554,29.04924 97.5712954,27.99432 96.4243354,26.63496 C95.2773754,25.2756 94.4206954,23.6472 93.8542954,21.74976 C93.2878954,19.85232 93.0046954,17.75664 93.0046954,15.46272 Z M99.6740554,15.46272 C99.6740554,16.93536 99.8156554,18.28056 100.098855,19.49832 C100.382055,20.71608 100.806855,21.76392 101.373255,22.64184 C101.939655,23.51976 102.668895,24.19944 103.560975,24.68088 C104.453055,25.16232 105.507975,25.40304 106.725735,25.40304 C108.963015,25.40304 110.704695,24.6384 111.950775,23.10912 C113.196855,21.57984 113.819895,19.03104 113.819895,15.46272 C113.819895,14.04672 113.692455,12.72984 113.437575,11.51208 C113.182695,10.29432 112.764975,9.2394 112.184415,8.34732 C111.603855,7.45524 110.867535,6.7614 109.975455,6.2658 C109.083375,5.7702 108.000135,5.5224 106.725735,5.5224 C104.516775,5.5224 102.789255,6.31536 101.543175,7.90128 C100.297095,9.4872 99.6740554,12.00768 99.6740554,15.46272 Z" id="Shape"></path>
                    <path d="M122.829649,3.05856 C122.829649,2.20896 123.127009,1.5222 123.721729,0.99828 C124.316449,0.47436 125.066929,0.2124 125.973169,0.2124 C127.105969,0.2124 127.998049,0.5664 128.649409,1.2744 C129.300769,1.9824 129.626449,2.88864 129.626449,3.99312 C129.626449,5.18256 129.435289,6.18084 129.052969,6.98796 C128.670649,7.79508 128.203369,8.46768 127.651129,9.00576 C127.098889,9.54384 126.532489,9.96156 125.951929,10.25892 C125.371369,10.55628 124.868689,10.7616 124.443889,10.87488 L122.957089,8.36856 C123.580129,8.142 124.118209,7.8234 124.571329,7.41276 C125.024449,7.00212 125.279329,6.47112 125.335969,5.81976 C124.741249,5.8764 124.174849,5.664 123.636769,5.18256 C123.098689,4.70112 122.829649,3.99312 122.829649,3.05856 Z" id="Path"></path>
                    <path d="M154.863563,29.05632 C153.929003,29.70768 152.697083,30.18204 151.167803,30.4794 C149.638523,30.77676 148.066763,30.92544 146.452523,30.92544 C144.555083,30.92544 142.735523,30.64224 140.993843,30.07584 C139.252163,29.50944 137.708723,28.6032 136.363523,27.35712 C135.018323,26.11104 133.949243,24.51096 133.156283,22.55688 C132.363323,20.6028 131.966843,18.23808 131.966843,15.46272 C131.966843,12.57408 132.419963,10.14564 133.326203,8.1774 C134.232443,6.20916 135.393563,4.62324 136.809563,3.41964 C138.225563,2.21604 139.797323,1.3452 141.524843,0.80712 C143.252363,0.26904 144.951563,0 146.622443,0 C148.463243,0 150.013763,0.11328 151.274003,0.33984 C152.534243,0.5664 153.575003,0.83544 154.396283,1.14696 L153.164363,6.41448 C152.456363,6.10296 151.628003,5.8764 150.679283,5.7348 C149.730563,5.5932 148.534043,5.5224 147.089723,5.5224 C145.815323,5.5224 144.661283,5.72772 143.627603,6.13836 C142.593923,6.549 141.708923,7.16496 140.972603,7.98624 C140.236283,8.80752 139.662803,9.8412 139.252163,11.08728 C138.841523,12.33336 138.636203,13.79184 138.636203,15.46272 C138.636203,16.93536 138.820283,18.28056 139.188443,19.49832 C139.556603,20.71608 140.108843,21.76392 140.845163,22.64184 C141.581483,23.51976 142.516043,24.19944 143.648843,24.68088 C144.781643,25.16232 146.098523,25.40304 147.599483,25.40304 C148.987163,25.40304 150.155363,25.2756 151.104083,25.02072 C152.052803,24.76584 152.895323,24.44016 153.631643,24.04368 L154.863563,29.05632 Z" id="Path"></path>
                    <path d="M174.875637,30.33072 L174.875637,18.054 C174.875637,16.12824 174.585357,14.74764 174.004797,13.9122 C173.424237,13.07676 172.355157,12.65904 170.797557,12.65904 C169.664757,12.65904 168.623997,13.02012 167.675277,13.74228 C166.726557,14.46444 166.096437,15.42024 165.784917,16.60968 L165.784917,30.33072 L159.837717,30.33072 L159.837717,0.59472 L165.784917,0.59472 L165.784917,10.74744 L166.294677,10.74744 C167.059317,9.75624 168.015117,8.94912 169.162077,8.32608 C170.309037,7.70304 171.760437,7.39152 173.516277,7.39152 C174.734037,7.39152 175.796037,7.5402 176.702277,7.83756 C177.608517,8.13492 178.366077,8.64468 178.974957,9.36684 C179.583837,10.089 180.044037,11.05188 180.355557,12.25548 C180.667077,13.45908 180.822837,14.95296 180.822837,16.73712 L180.822837,30.33072 L174.875637,30.33072 Z" id="Path"></path>
                    <path d="M206.739631,28.29168 C205.776751,29.028 204.466951,29.65812 202.810231,30.18204 C201.153511,30.70596 199.376431,30.96792 197.478991,30.96792 C193.655791,30.96792 190.852111,29.92008 189.067951,27.8244 C187.283791,25.72872 186.391711,22.85424 186.391711,19.20096 C186.391711,15.32112 187.397071,12.38292 189.407791,10.38636 C191.418511,8.3898 194.250511,7.39152 197.903791,7.39152 C199.093231,7.39152 200.268511,7.5402 201.429631,7.83756 C202.590751,8.13492 203.624431,8.63052 204.530671,9.32436 C205.436911,10.0182 206.166151,10.95276 206.718391,12.12804 C207.270631,13.30332 207.546751,14.75472 207.546751,16.48224 C207.546751,17.07696 207.511351,17.72832 207.440551,18.43632 C207.369751,19.14432 207.249391,19.88064 207.079471,20.64528 L192.211471,20.64528 C192.353071,22.57104 192.912391,23.99412 193.889431,24.91452 C194.866471,25.83492 196.459471,26.29512 198.668431,26.29512 C199.999471,26.29512 201.195991,26.10396 202.257991,25.72164 C203.319991,25.33932 204.134191,24.94992 204.700591,24.55344 L206.739631,28.29168 Z M197.818831,12.06432 C196.062991,12.06432 194.760271,12.53868 193.910671,13.4874 C193.061071,14.43612 192.565471,15.6468 192.423871,17.11944 L202.024351,17.11944 C202.137631,15.56184 201.854431,14.32992 201.174751,13.42368 C200.495071,12.51744 199.376431,12.06432 197.818831,12.06432 Z" id="Shape"></path>
                    <path d="M232.444025,28.29168 C231.481145,29.028 230.171345,29.65812 228.514625,30.18204 C226.857905,30.70596 225.080825,30.96792 223.183385,30.96792 C219.360185,30.96792 216.556505,29.92008 214.772345,27.8244 C212.988185,25.72872 212.096105,22.85424 212.096105,19.20096 C212.096105,15.32112 213.101465,12.38292 215.112185,10.38636 C217.122905,8.3898 219.954905,7.39152 223.608185,7.39152 C224.797625,7.39152 225.972905,7.5402 227.134025,7.83756 C228.295145,8.13492 229.328825,8.63052 230.235065,9.32436 C231.141305,10.0182 231.870545,10.95276 232.422785,12.12804 C232.975025,13.30332 233.251145,14.75472 233.251145,16.48224 C233.251145,17.07696 233.215745,17.72832 233.144945,18.43632 C233.074145,19.14432 232.953785,19.88064 232.783865,20.64528 L217.915865,20.64528 C218.057465,22.57104 218.616785,23.99412 219.593825,24.91452 C220.570865,25.83492 222.163865,26.29512 224.372825,26.29512 C225.703865,26.29512 226.900385,26.10396 227.962385,25.72164 C229.024385,25.33932 229.838585,24.94992 230.404985,24.55344 L232.444025,28.29168 Z M223.523225,12.06432 C221.767385,12.06432 220.464665,12.53868 219.615065,13.4874 C218.765465,14.43612 218.269865,15.6468 218.128265,17.11944 L227.728745,17.11944 C227.842025,15.56184 227.558825,14.32992 226.879145,13.42368 C226.199465,12.51744 225.080825,12.06432 223.523225,12.06432 Z" id="Shape"></path>
                    <path d="M252.498578,13.46616 C251.648978,13.18296 250.799378,13.04136 249.949778,13.04136 C248.703698,13.04136 247.677098,13.33872 246.869978,13.93344 C246.062858,14.52816 245.531858,15.27864 245.276978,16.18488 L245.276978,30.33072 L239.329778,30.33072 L239.329778,8.02872 L244.002578,8.02872 L244.639778,11.12976 L245.192018,11.12976 C245.758418,9.96864 246.515978,9.07656 247.464698,8.45352 C248.413418,7.83048 249.496658,7.51896 250.714418,7.51896 C251.479058,7.51896 252.356978,7.67472 253.348178,7.98624 L252.498578,13.46616 Z" id="Path"></path>
                    <path d="M257.260332,24.55344 C257.656812,24.75168 258.117012,24.94992 258.640932,25.14816 C259.164852,25.3464 259.731252,25.53048 260.340132,25.7004 C260.949012,25.87032 261.572052,26.01192 262.209252,26.1252 C262.846452,26.23848 263.490732,26.29512 264.142092,26.29512 C265.133292,26.29512 265.905012,26.13936 266.457252,25.82784 C267.009492,25.51632 267.285612,24.93576 267.285612,24.08616 C267.285612,23.40648 266.917452,22.9038 266.181132,22.57812 C265.444812,22.25244 264.538572,21.93384 263.462412,21.62232 C262.669452,21.39576 261.841092,21.12672 260.977332,20.8152 C260.113572,20.50368 259.320612,20.08596 258.598452,19.56204 C257.876292,19.03812 257.281572,18.35136 256.814292,17.50176 C256.347012,16.65216 256.113372,15.576 256.113372,14.27328 C256.113372,12.036 256.807212,10.32972 258.194892,9.15444 C259.582572,7.97916 261.579132,7.39152 264.184572,7.39152 C265.883772,7.39152 267.476772,7.5402 268.963572,7.83756 C270.450372,8.13492 271.646892,8.48184 272.553132,8.87832 L271.321212,13.3812 C270.584892,13.098 269.643252,12.80772 268.496292,12.51036 C267.349332,12.213 266.181132,12.06432 264.991692,12.06432 C264.000492,12.06432 263.264172,12.213 262.782732,12.51036 C262.301292,12.80772 262.060572,13.32456 262.060572,14.06088 C262.060572,14.71224 262.435812,15.20076 263.186292,15.52644 C263.936772,15.85212 264.850092,16.17072 265.926252,16.48224 C266.719212,16.7088 267.547572,16.97076 268.411332,17.26812 C269.275092,17.56548 270.060972,17.96904 270.768972,18.4788 C271.476972,18.98856 272.064612,19.647 272.531892,20.45412 C272.999172,21.26124 273.232812,22.27368 273.232812,23.49144 C273.232812,25.87032 272.461092,27.71112 270.917652,29.01384 C269.374212,30.31656 267.059052,30.96792 263.972172,30.96792 C262.301292,30.96792 260.743692,30.81924 259.299372,30.52188 C257.855052,30.22452 256.679772,29.79264 255.773532,29.22624 L257.260332,24.55344 Z" id="Path"></path>
                </g>
            </g>
        </g>
    </g>
</svg>