<?xml version="1.0" encoding="UTF-8"?>
<svg width="900px" height="900px" viewBox="0 0 900 900" version="1.1" xmlns="http://www.w3.org/2000/svg" xmlns:xlink="http://www.w3.org/1999/xlink">
    <title>CupOCheers Logo</title>
    <g id="CupOCheers-Logo" stroke="none" stroke-width="1" fill="none" fill-rule="evenodd">
        <rect id="Rectangle" stroke="#16155F" stroke-width="16" fill="#E1E7F3" stroke-linejoin="round" x="10" y="10" width="880" height="880" rx="16"></rect>
        <g id="Group" transform="translate(91.731540, 55.810445)">
            <g id="Iced-Coffee" transform="translate(200.000000, 300.000000) rotate(12.000000) translate(-200.000000, -300.000000) ">
                <path d="M78,208 L322,208 L300.565027,564.60001 C300.247632,569.880299 295.872863,574 290.583044,574 L109.416956,574 C104.127137,574 99.7523677,569.880299 99.4349733,564.60001 L78,208 L78,208 Z" id="Cup" stroke="#000000" stroke-width="6" fill="#FFFFFF" stroke-linejoin="round"></path>
                <path d="M200,91 C255.979393,91 303.941443,129.424995 323.985628,183.998283 L76.0143719,183.998283 C96.0585573,129.424995 144.020607,91 200,91 Z" id="Lid-Dome" stroke="#000000" stroke-width="6" fill="#FFFFFF"></path>
                <rect id="Straw" stroke="#000000" stroke-width="5" fill="#90CCEC" transform="translate(181.000000, 285.500000) rotate(6.000000) translate(-181.000000, -285.500000) " x="166" y="11" width="30" height="549" rx="8"></rect>
                <ellipse id="Straw-Opening" fill="#000000" cx="200" cy="94" rx="23" ry="6"></ellipse>
                <rect id="Lide-Base" stroke="#000000" stroke-width="6" fill="#FFFFFF" stroke-linejoin="round" x="66" y="184" width="268" height="24"></rect>
                <path d="M109.436163,574 L290.560846,574 C295.859735,574 300.238706,569.866622 300.544211,564.576547 L320,227.684133 L320,227.684133 C291.727643,224.200872 272.610103,227.920636 262.647379,238.843424 C247.703295,255.227607 234.46171,254.666083 217.329313,254.666083 C200.196916,254.666083 185.604033,258.851838 171.152438,270.900532 C155.427115,284.011168 138.795114,275.131155 116.119176,278.866771 C102.95381,281.035623 92.2771873,288.080033 84.0893071,300 L99.4529803,564.579706 C99.7600891,569.868465 104.138495,574 109.436163,574 Z" id="Coffee" stroke="#000000" stroke-width="5" fill="#8A5123" stroke-linejoin="round"></path>
                <g id="Cozy" transform="translate(66.000000, 306.000000)" stroke="#000000" stroke-width="5">
                    <path d="M8.41742027,0 L258.608691,0 C263.026969,9.64732338e-16 266.608691,3.581722 266.608691,8 C266.608691,8.12730424 266.605652,8.25459035 266.599578,8.38174956 L258.621467,175.38175 C258.417715,179.646751 254.900446,183 250.63058,183 L16.9150133,183 C12.6547458,183 9.14184831,179.661307 8.92534985,175.406544 L0.427756842,8.40654436 C0.203228592,3.99397509 3.59830664,0.234864822 8.01087591,0.0103365726 C8.14628121,0.00344663751 8.28183979,7.13033309e-15 8.41742027,0 Z" id="Outer-Cozy-Line" fill="#EA7BB8"></path>
                    <path d="M20.272063,11.2962963 L245.678196,11.2962963 C250.096474,11.2962963 253.678196,14.8780183 253.678196,19.2962963 C253.678196,19.4271347 253.674987,19.5579534 253.66857,19.6886344 L246.522506,165.225671 C246.313303,169.486305 242.797898,172.833333 238.532132,172.833333 L27.8834324,172.833333 C23.6275271,172.833333 20.1166243,169.501247 19.8943506,165.25115 L12.2829812,19.7141133 C12.0522272,15.3018653 15.4419979,11.5379684 19.854246,11.3072144 C19.9933995,11.2999369 20.1327194,11.2962963 20.272063,11.2962963 Z" id="Inner-Cozy-Line"></path>
                </g>
                <g id="Threads" transform="translate(68.765781, 307.395357)" stroke="#000000" stroke-linecap="square" stroke-width="5">
                    <line x1="42.5996229" y1="0" x2="27" y2="8.92929327" id="Line-Copy-4"></line>
                    <line x1="114.599623" y1="0" x2="99" y2="8.92929327" id="Line-Copy-6"></line>
                    <line x1="150.599623" y1="0" x2="135" y2="8.92929327" id="Line-Copy-7"></line>
                    <line x1="222.599623" y1="0" x2="207" y2="8.92929327" id="Line-Copy-27"></line>
                    <line x1="258.599623" y1="0" x2="243" y2="8.92929327" id="Line-Copy-29"></line>
                    <line x1="260.734219" y1="32.1046431" x2="251.734219" y2="22.1046431" id="Line-Copy-30"></line>
                    <line x1="9.73421932" y1="12.1046431" x2="5.73421932" y2="1.10464307" id="Line-Copy-36"></line>
                    <line x1="8.73421932" y1="36.1046431" x2="0.734219322" y2="28.1046431" id="Line-Copy-37"></line>
                    <line x1="9.73421932" y1="64.1046431" x2="1.73421932" y2="56.1046431" id="Line-Copy-38"></line>
                    <line x1="11.7342193" y1="93.1046431" x2="2.73421932" y2="84.1046431" id="Line-Copy-39"></line>
                    <line x1="13.7342193" y1="122.104643" x2="4.73421932" y2="113.104643" id="Line-Copy-40"></line>
                    <line x1="14.7342193" y1="151.104643" x2="5.73421932" y2="142.104643" id="Line-Copy-41"></line>
                    <line x1="18.7342193" y1="170.104643" x2="6.73421932" y2="173.104643" id="Line-Copy-42"></line>
                    <line x1="259.734219" y1="61.1046431" x2="251.734219" y2="52.1046431" id="Line-Copy-31"></line>
                    <line x1="258.734219" y1="90.1046431" x2="249.734219" y2="81.1046431" id="Line-Copy-32"></line>
                    <line x1="256.734219" y1="119.104643" x2="247.734219" y2="110.104643" id="Line-Copy-33"></line>
                    <line x1="255.734219" y1="148.104643" x2="246.734219" y2="139.104643" id="Line-Copy-34"></line>
                    <line x1="253.734219" y1="175.104643" x2="244.734219" y2="166.104643" id="Line-Copy-35"></line>
                    <line x1="186.599623" y1="0" x2="171" y2="8.92929327" id="Line-Copy-28"></line>
                    <line x1="78.5996229" y1="0" x2="63" y2="8.92929327" id="Line-Copy-5"></line>
                    <line x1="164.734219" y1="173.104643" x2="152.841098" y2="180.244484" id="Line-Copy-20"></line>
                    <line x1="195.734219" y1="173.104643" x2="184.734219" y2="180.244484" id="Line-Copy-19"></line>
                    <line x1="226.734219" y1="173.104643" x2="215.734219" y2="180.244484" id="Line-Copy-18"></line>
                    <line x1="133.734219" y1="173.104643" x2="123.411128" y2="180.244484" id="Line-Copy-17"></line>
                    <line x1="102.734219" y1="173.104643" x2="92.1763837" y2="180.244484" id="Line-Copy-16"></line>
                    <line x1="71.7342193" y1="173.104643" x2="61.2700767" y2="180.244484" id="Line-Copy-15"></line>
                    <line x1="40.7342193" y1="173.104643" x2="31.5874907" y2="179.604643" id="Line-Copy-14"></line>
                </g>
                <g id="Face" transform="translate(129.393831, 348.769231)">
                    <path d="M4.61380169,2.35367281e-14 L37,27.98718 L-7.10542736e-15,48 L0.99,37.694 L22.0972539,26.529503 L3.539,11.176 L4.61380169,2.35367281e-14 Z" id="Winky-Eye" fill="#000000"></path>
                    <circle id="Eye" fill="#000000" cx="120.106169" cy="26.7307686" r="21.5"></circle>
                    <g id="Mouth" transform="translate(39.606169, 48.230769)">
                        <path d="M54,0 L54,30 L53.9270054,30.0005835 C52.9032738,43.9780499 41.2387941,55 27,55 C12.7612059,55 1.09672624,43.9780499 0.0729946345,30.0005835 L0,30 L0,0 L54,0 Z" id="Combined-Shape" fill="#000000"></path>
                        <path d="M25.354572,50.7128547 C31.1129512,50.7128547 40.354572,46.9076002 40.354572,43.3177493 C40.354572,39.7278984 33.4149856,36.8177493 24.854572,36.8177493 C16.2941583,36.8177493 9.35457197,39.7278984 9.35457197,43.3177493 C9.35457197,46.9076002 19.5961928,50.7128547 25.354572,50.7128547 Z" id="Oval" fill="#F38484" transform="translate(24.854572, 43.765302) rotate(9.000000) translate(-24.854572, -43.765302) "></path>
                    </g>
                </g>
            </g>
        </g>
        <g id="Group" transform="translate(409.000000, 92.500000)">
            <g id="Hot-Coffee" transform="translate(200.000000, 300.000000) rotate(-12.000000) translate(-200.000000, -300.000000) ">
                <path d="M78,208 L322,208 L300.47768,545.509111 C300.209085,549.721166 296.714506,553 292.493896,553 L107.506104,553 C103.285494,553 99.7909149,549.721166 99.5223201,545.509111 L78,208 L78,208 Z" id="Rectangle" stroke="#000000" stroke-width="6" fill="#FFFFFF" stroke-linejoin="round"></path>
                <rect id="Lide-Base" stroke="#000000" stroke-width="6" fill="#FFFFFF" stroke-linejoin="round" x="66" y="184" width="268" height="24"></rect>
                <g id="Cozy" transform="translate(66.000000, 263.000000)" fill="#4EAEFF" stroke="#000000" stroke-width="5">
                    <path d="M8.42862404,0 L259.598204,0 C264.016482,-8.11624501e-16 267.598204,3.581722 267.598204,8 C267.598204,8.13063155 267.595004,8.2612435 267.588608,8.39171835 L259.597761,171.391718 C259.388877,175.652607 255.873363,179 251.607357,179 L16.939782,179 C12.6836214,179 9.1726017,175.667528 8.95066567,171.417157 L0.439507699,8.41715725 C0.209118114,4.00489013 3.59919967,0.241273249 8.01146679,0.0108836639 C8.15040091,0.00362912228 8.28950064,-8.62621866e-16 8.42862404,0 Z" id="Outer-Cozy-Line"></path>
                </g>
                <g id="Face" transform="translate(73.280585, 250.000000)">
                    <g id="Fluff" fill="#007BE2" stroke="#000000" stroke-width="4">
                        <path d="M27.2194152,0 C40.0091082,0 50.831122,5.46862363 54.4388304,13.0001663 L1.08246745e-13,13.0001663 C3.60770842,5.46862363 14.4297222,0 27.2194152,0 Z" id="Combined-Shape"></path>
                        <path d="M78.2194152,0 C91.0091082,0 101.831122,5.46862363 105.43883,13.0001663 L51,13.0001663 C54.6077084,5.46862363 65.4297222,0 78.2194152,0 Z" id="Combined-Shape-Copy"></path>
                        <path d="M127.219415,0 C140.009108,0 150.831122,5.46862363 154.43883,13.0001663 L100,13.0001663 C103.607708,5.46862363 114.429722,0 127.219415,0 Z" id="Combined-Shape-Copy-2"></path>
                        <path d="M177.219415,0 C190.009108,0 200.831122,5.46862363 204.43883,13.0001663 L150,13.0001663 C153.607708,5.46862363 164.429722,0 177.219415,0 Z" id="Combined-Shape-Copy-3"></path>
                        <path d="M227.219415,0 C240.009108,0 250.831122,5.46862363 254.43883,13.0001663 L200,13.0001663 C203.607708,5.46862363 214.429722,0 227.219415,0 Z" id="Combined-Shape-Copy-4"></path>
                        <path d="M34.2194152,192 C47.0091082,192 57.831122,197.468624 61.4388304,205.000166 L7,205.000166 C10.6077084,197.468624 21.4297222,192 34.2194152,192 Z" id="Combined-Shape-Copy-5" transform="translate(34.219415, 198.500083) rotate(-180.000000) translate(-34.219415, -198.500083) "></path>
                        <path d="M80.2194152,192 C93.0091082,192 103.831122,197.468624 107.43883,205.000166 L53,205.000166 C56.6077084,197.468624 67.4297222,192 80.2194152,192 Z" id="Combined-Shape-Copy-6" transform="translate(80.219415, 198.500083) rotate(-180.000000) translate(-80.219415, -198.500083) "></path>
                        <path d="M125.219415,192 C138.009108,192 148.831122,197.468624 152.43883,205.000166 L98,205.000166 C101.607708,197.468624 112.429722,192 125.219415,192 Z" id="Combined-Shape-Copy-7" transform="translate(125.219415, 198.500083) rotate(-180.000000) translate(-125.219415, -198.500083) "></path>
                        <path d="M169.219415,192 C182.009108,192 192.831122,197.468624 196.43883,205.000166 L142,205.000166 C145.607708,197.468624 156.429722,192 169.219415,192 Z" id="Combined-Shape-Copy-8" transform="translate(169.219415, 198.500083) rotate(-180.000000) translate(-169.219415, -198.500083) "></path>
                        <path d="M218.219415,192 C231.009108,192 241.831122,197.468624 245.43883,205.000166 L191,205.000166 C194.607708,197.468624 205.429722,192 218.219415,192 Z" id="Combined-Shape-Copy-9" transform="translate(218.219415, 198.500083) rotate(-180.000000) translate(-218.219415, -198.500083) "></path>
                    </g>
                    <circle id="Eye" fill="#000000" cx="186.219415" cy="75.5" r="21.5"></circle>
                    <circle id="Eye-Copy" fill="#000000" cx="68.2194152" cy="75.5" r="21.5"></circle>
                    <g id="Mouth" transform="translate(97.719415, 97.000000)">
                        <path d="M59,0 L59,30 L58.9202466,30.0005835 C57.801725,43.9780499 45.0572009,55 29.5,55 C13.9427991,55 1.19827496,43.9780499 0.079753397,30.0005835 L0,30 L0,0 L59,0 Z" id="Combined-Shape" fill="#000000"></path>
                        <path d="M32.5483871,51 C38.8640288,51 49,47.1660195 49,43.5490687 C49,39.9321179 41.3888407,37 32,37 C22.6111593,37 15,39.9321179 15,43.5490687 C15,47.1660195 26.2327454,51 32.5483871,51 Z" id="Oval" fill="#ED8080" transform="translate(32.000000, 44.000000) rotate(-7.000000) translate(-32.000000, -44.000000) "></path>
                    </g>
                </g>
                <polygon id="Rectangle" stroke="#000000" stroke-width="6" fill="#FFFFFF" stroke-linejoin="round" points="78 154 322 154 328 184 72 184"></polygon>
            </g>
        </g>
        <text id="Cup-O’Cheers" font-family="PTSans-CaptionBold, PT Sans Caption" font-size="118" font-weight="bold" letter-spacing="2.01709402" fill="#12125F">
            <tspan x="65" y="806">Cup O’Cheers</tspan>
        </text>
    </g>
</svg>